<svg width="16" height="22" viewBox="0 0 16 22" fill="none" xmlns="http://www.w3.org/2000/svg">
<path d="M8.16 9.87C8.06 9.86 7.94 9.86 7.83 9.87C5.45 9.79 3.56 7.84 3.56 5.44C3.56 2.99 5.54 1 8 1C10.45 1 12.44 2.99 12.44 5.44C12.43 7.84 10.54 9.79 8.16 9.87Z" stroke="white" stroke-width="1.5" stroke-linecap="round" stroke-linejoin="round"/>
<path d="M3.15997 13.56C0.739971 15.18 0.739971 17.82 3.15997 19.43C5.90997 21.27 10.42 21.27 13.17 19.43C15.59 17.81 15.59 15.17 13.17 13.56C10.43 11.73 5.91997 11.73 3.15997 13.56Z" stroke="white" stroke-width="1.5" stroke-linecap="round" stroke-linejoin="round"/>
</svg>
